<?xml version="1.0" encoding="UTF-8"?>
<!DOCTYPE svg PUBLIC "-//W3C//DTD SVG 1.1//EN" "http://www.w3.org/Graphics/SVG/1.1/DTD/svg11.dtd">
<!-- Creator: CorelDRAW -->
<svg xmlns="http://www.w3.org/2000/svg" xml:space="preserve" width="210mm" height="195mm" style="shape-rendering:geometricPrecision; text-rendering:geometricPrecision; image-rendering:optimizeQuality; fill-rule:evenodd; clip-rule:evenodd"
viewBox="0 0 210 195"
 xmlns:xlink="http://www.w3.org/1999/xlink">
 <defs>
  <style type="text/css">
   <![CDATA[
    .fil3 {fill:#3C746B}
    .fil4 {fill:#98AF85}
    .fil2 {fill:#C0A062}
    .fil1 {fill:#FFFCC8}
    .fil0 {fill:#00AAE3}
   ]]>
  </style>
 </defs>
 <g id="Layer_x0020_1">
  <metadata id="CorelCorpID_0Corel-Layer"/>
  <g id="_75820928">
   <path id="_76298552" class="fil0" d="M92.1988 92.8387c4.1978,-0.139 8.4993,-0.2082 12.9053,-0.2082 23.9022,0 44.2664,2.3241 61.0916,7.0074l42.8787 0 0 96.7548 -208.149 0 0 -96.7548 42.8787 0c6.2444,-1.9078 14.2233,-3.4689 23.9022,-4.7874 3.053,-0.347 9.3157,-1.155 12.4724,-1.4324l2.7805 -0.2577 2.7408 -0.1142 3.4831 -0.1713 3.0155 -0.0362z"/>
   <ellipse id="_77390240" class="fil1" cx="105.355" cy="117.864" rx="84.9742" ry="24.4709"/>
   <path id="_74805232" class="fil2" d="M92.0898 93.9636c-0.2032,2.1014 -0.8459,8.9877 -1.1013,12.3474l-12.6251 1.4654c0.1389,-1.8733 0.8745,-9.2072 1.0343,-10.5666l0.2582 -2.3629 0.5396 -3.8472 8.1526 0.1041 -0.1041 -1.7344 -7.7363 -0.4163c1.0063,-5.273 1.8389,-9.4016 2.4285,-12.3849l7.0078 0.5204 -0.104 -1.7344 -6.6956 -0.9023c0.9018,-3.8852 1.8385,-7.7359 2.8448,-11.5867l7.0074 0.5896 -0.1041 -1.7344 -6.487 -0.9022c1.0059,-3.8508 2.1159,-7.736 3.3648,-11.5867l6.5915 1.3181 0.2082 -1.6303 -6.3137 -1.1104c1.4222,-4.6137 3.7134,-11.0631 5.2746,-15.122l8.383 0.8415c-5.2734,16.4089 -9.8865,39.1842 -11.8241,60.4352z"/>
   <path id="_76326712" class="fil3" d="M94.7315 34.7996c-6.106,0.4859 -10.4075,1.5611 -12.9053,3.2611 -5.0652,3.3652 -8.6037,9.5748 -10.5811,18.5945 -0.867,3.9204 -1.4571,8.4997 -1.6996,13.7034 -5.9671,-9.7486 -8.8812,-17.5886 -8.7423,-23.5557 0.1733,-14.9867 10.2337,-22.237 30.1816,-21.7515 -4.4752,-4.406 -8.3608,-6.7648 -11.5871,-7.0078 -4.8915,-0.4163 -11.4134,3.0181 -19.6352,10.3382 6.0363,-13.5297 12.593,-20.6068 19.6352,-21.2312 5.6893,-0.4855 11.4133,2.1163 17.1723,7.7363 -0.0693,-2.047 -0.3123,-3.5733 -0.7286,-4.5792 -2.2203,-3.053 -4.024,-5.1345 -5.377,-6.2101 4.9608,-1.3529 8.8463,-2.0815 11.6908,-2.22 2.8448,-0.1389 6.8344,0.4508 12.0033,1.8037 -2.2548,3.2612 -3.6774,5.7241 -4.267,7.3201 -1.2489,3.0529 -2.1507,5.724 -2.7408,8.0485 5.7938,-2.9837 10.4771,-4.4752 14.0157,-4.4752 6.3485,0 13.5296,5.2382 21.5434,15.7497 -9.3667,-1.9774 -16.5479,-2.9141 -21.5434,-2.8445 -3.1223,0.0693 -5.9323,0.2082 -8.4301,0.4163 6.2789,1.6304 10.8238,3.573 13.5989,5.8974 3.7467,3.1223 5.5852,8.6034 5.5852,16.4438 0,6.2445 -1.0407,13.0093 -3.1222,20.3293 -1.9774,-12.1074 -6.2096,-21.2311 -12.7315,-27.3371 -3.9896,-3.6426 -8.3259,-5.9667 -13.0093,-6.9033l-0.9359 -0.3293 -0.741 -0.6555 -0.8265 -0.6555 -0.456 -0.6555 -0.57 0.114 -0.741 0.114 -1.1115 0.1995 -0.7695 0.114 -0.9405 0.114 -0.741 0.057 -0.493 0.0566z"/>
   <path id="_75932552" class="fil4" d="M67.6738 94.7909l3.5713 7.4837 -7.9097 -2.6367 6.9037 6.7997c3.053,2.0466 7.8405,2.9141 14.3275,2.6711 4.6833,-0.1385 8.6037,-1.2833 11.7952,-3.3648l3.8508 -10.0608 -15.7149 11.408 -19.046 -16.9932 2.2221 4.693z"/>
  </g>
 </g>
</svg>
